# Blender v2.78 (sub 0) OBJ File: '13.blend'
# www.blender.org
mtllib Cat_Ears_01.mtl
scale 0.03
color #A923CCFF
width .75
g catears_Circle.004
v -3.535533 6.535534 1.000365
v -4.627562 3.899145 0.930376
v -0.641452 8.113573 0.787636
v -3.166965 7.067472 0.920351
v -0.953108 8.072322 0.354906
v -1.950952 7.659002 0.354906
v -3.117702 10.461078 0.378385
v -3.535533 6.535534 -0.792271
v -4.627562 3.899145 -0.722281
v -4.784243 0.071069 -0.373091
v -1.767767 7.267767 -1.147365
v -4.784243 0.071069 0.581186
v -3.117702 10.461078 -0.016346
v -1.767767 7.267767 0.907469
v -2.881568 9.902495 0.470934
v -1.904208 7.590523 0.853994
v -2.948796 7.245681 0.354906
v -2.723272 9.485948 0.354906
v 0.002934 7.714601 0.814573
v -3.196514 6.468099 1.000365
v -4.288542 3.831709 0.930376
v 0.002934 7.714601 -0.606479
v -3.196514 6.468099 -0.792271
v -4.288542 3.831709 -0.722281
v -4.660979 0.003633 -0.373091
v -1.641857 7.089229 -0.933274
v -4.660979 0.003633 0.581186
v -1.706654 7.085219 0.922073
v 0.000000 8.000000 0.814573
v 3.535533 6.535534 1.000365
v 4.627562 3.899145 0.930376
v 0.641452 8.113573 0.787636
v 3.166965 7.067472 0.920351
v 0.953108 8.072322 0.354906
v 1.950952 7.659002 0.354906
v 3.117702 10.461078 0.378385
v 0.000000 8.000000 -0.606479
v 3.535533 6.535534 -0.792271
v 4.627562 3.899145 -0.722281
v 4.784243 0.071069 -0.373091
v 1.767767 7.267767 -1.147365
v 4.784243 0.071069 0.581186
v 3.117702 10.461078 -0.016346
v 1.767767 7.267767 0.907469
v 2.881568 9.902495 0.470934
v 1.904208 7.590523 0.853994
v 2.948796 7.245681 0.354906
v 2.723272 9.485948 0.354906
v -0.002934 7.714601 0.814573
v 3.196514 6.468099 1.000365
v 4.288542 3.831709 0.930376
v -0.002934 7.714601 -0.606479
v 3.196514 6.468099 -0.792271
v 4.288542 3.831709 -0.722281
v 4.660979 0.003633 -0.373091
v 1.641857 7.089229 -0.933274
v 4.660979 0.003633 0.581186
v 1.706654 7.085219 0.922073
vn 0.6196 0.7849 0.0000
vn -0.4800 -0.8773 0.0000
vn -0.2770 0.2146 -0.9366
vn -0.0135 0.1579 0.9874
vn -0.0260 -0.0890 0.9957
vn 0.1244 0.3776 -0.9176
vn -0.9944 0.1058 0.0000
vn 0.9239 -0.3827 0.0000
vn 0.9953 -0.0968 0.0000
vn 0.0430 0.0370 0.9984
vn 0.0170 0.0854 0.9962
vn -0.0049 -0.0245 0.9997
vn -0.0260 -0.0890 -0.9957
vn 0.3486 -0.3112 -0.8841
vn -0.9239 0.3827 0.0000
vn -0.0049 -0.0245 -0.9997
vn 0.0967 -0.5431 -0.8340
vn 0.3500 -0.9367 0.0058
vn 0.3771 -0.9262 0.0057
vn -0.9992 0.0409 0.0000
vn -0.6196 0.7849 0.0000
vn 0.4800 -0.8773 0.0000
vn 0.2770 0.2146 -0.9366
vn 0.0135 0.1579 0.9874
vn 0.0260 -0.0890 0.9957
vn -0.1244 0.3776 -0.9176
vn 0.9944 0.1058 0.0000
vn -0.9239 -0.3827 0.0000
vn -0.9953 -0.0968 0.0000
vn -0.0430 0.0370 0.9984
vn -0.0170 0.0854 0.9962
vn 0.0049 -0.0245 0.9997
vn 0.0260 -0.0890 -0.9957
vn -0.3486 -0.3112 -0.8841
vn 0.9239 0.3827 0.0000
vn 0.0049 -0.0245 -0.9997
vn -0.0967 -0.5431 -0.8340
vn -0.3500 -0.9367 0.0058
vn -0.3771 -0.9262 0.0057
vn 0.9992 0.0409 0.0000
vn -0.5146 -0.5822 0.6295
vn 0.8680 -0.0436 0.4947
vn 0.0000 0.0000 1.0000
vn -0.3728 0.9122 0.1701
vn -0.3745 0.9148 0.1517
vn 0.5146 -0.5822 0.6295
vn -0.8680 -0.0436 0.4947
vn 0.3728 0.9122 0.1701
vn 0.3745 0.9148 0.1517
usemtl 1A1A1A
s off
f 7//1 29//1 37//1 13//1
f 12//2 10//2 25//2 27//2
f 8//3 13//3 11//3
f 14//4 16//4 4//4 1//4
f 2//5 12//5 27//5 21//5
f 11//6 13//6 37//6
f 7//4 15//4 3//4 29//4
f 1//4 4//4 15//4 7//4
f 1//7 7//7 13//7 8//7
f 29//4 3//4 16//4 14//4
f 20//8 21//8 24//8 23//8
f 24//9 21//9 27//9 25//9
f 14//10 28//10 19//10 29//10
f 1//11 20//11 28//11 14//11
f 1//12 2//12 21//12 20//12
f 10//13 9//13 24//13 25//13
f 37//14 22//14 26//14 11//14
f 1//15 8//15 9//15 2//15
f 9//16 8//16 23//16 24//16
f 11//17 26//17 23//17 8//17
f 19//18 28//18 26//18 22//18
f 23//19 26//19 28//19 20//19
f 2//20 9//20 10//20 12//20
f 36//21 43//21 37//21 29//21
f 42//22 57//22 55//22 40//22
f 38//23 41//23 43//23
f 44//24 30//24 33//24 46//24
f 31//25 51//25 57//25 42//25
f 41//26 37//26 43//26
f 36//24 29//24 32//24 45//24
f 30//24 36//24 45//24 33//24
f 30//27 38//27 43//27 36//27
f 29//24 44//24 46//24 32//24
f 50//28 53//28 54//28 51//28
f 54//29 55//29 57//29 51//29
f 44//30 29//30 49//30 58//30
f 30//31 44//31 58//31 50//31
f 30//32 50//32 51//32 31//32
f 40//33 55//33 54//33 39//33
f 37//34 41//34 56//34 52//34
f 30//35 31//35 39//35 38//35
f 39//36 54//36 53//36 38//36
f 41//37 38//37 53//37 56//37
f 49//38 52//38 56//38 58//38
f 53//39 50//39 58//39 56//39
f 31//40 42//40 40//40 39//40
usemtl F06292
f 15//41 18//41 5//41 3//41
f 4//42 17//42 18//42 15//42
f 6//43 18//43 17//43
f 5//43 18//43 6//43
f 3//44 5//44 6//44 16//44
f 16//45 6//45 17//45 4//45
f 45//46 32//46 34//46 48//46
f 33//47 45//47 48//47 47//47
f 35//43 47//43 48//43
f 34//43 35//43 48//43
f 32//48 46//48 35//48 34//48
f 46//49 33//49 47//49 35//49
